<mxfile host="www.draw.io" modified="2020-02-05T06:18:26.456Z" agent="Mozilla/5.0 (Windows NT 10.0; Win64; x64) AppleWebKit/537.36 (KHTML, like Gecko) Chrome/78.0.3904.97 Safari/537.36" etag="xYZdWywIRCXnCtktlMW1" version="12.6.5" type="github">
  <diagram id="v_arF2TW2bqlZ3hK2OgE" name="Page-1">
    <mxGraphModel dx="869" dy="437" grid="1" gridSize="10" guides="1" tooltips="1" connect="1" arrows="1" fold="1" page="1" pageScale="1" pageWidth="827" pageHeight="1169" math="0" shadow="0">
      <root>
        <mxCell id="0"/>
        <mxCell id="1" parent="0"/>
        <mxCell id="MOwNMbAIh5BBS8uGqdnz-7" style="edgeStyle=orthogonalEdgeStyle;rounded=0;orthogonalLoop=1;jettySize=auto;html=1;entryX=0.5;entryY=0;entryDx=0;entryDy=0;" parent="1" source="MOwNMbAIh5BBS8uGqdnz-1" edge="1">
          <mxGeometry relative="1" as="geometry">
            <mxPoint x="160" y="150" as="targetPoint"/>
          </mxGeometry>
        </mxCell>
        <mxCell id="MOwNMbAIh5BBS8uGqdnz-1" value="权限下发" style="rounded=0;whiteSpace=wrap;html=1;" parent="1" vertex="1">
          <mxGeometry x="100" y="20" width="120" height="60" as="geometry"/>
        </mxCell>
        <mxCell id="MOwNMbAIh5BBS8uGqdnz-8" style="edgeStyle=orthogonalEdgeStyle;rounded=0;orthogonalLoop=1;jettySize=auto;html=1;entryX=0.5;entryY=0;entryDx=0;entryDy=0;" parent="1" source="MOwNMbAIh5BBS8uGqdnz-2" target="MOwNMbAIh5BBS8uGqdnz-4" edge="1">
          <mxGeometry relative="1" as="geometry"/>
        </mxCell>
        <mxCell id="MOwNMbAIh5BBS8uGqdnz-9" value="是" style="text;html=1;align=center;verticalAlign=middle;resizable=0;points=[];labelBackgroundColor=#ffffff;" parent="MOwNMbAIh5BBS8uGqdnz-8" vertex="1" connectable="0">
          <mxGeometry x="-0.2444" y="1" relative="1" as="geometry">
            <mxPoint as="offset"/>
          </mxGeometry>
        </mxCell>
        <mxCell id="-Oa4V9TWspahq8izikd7-13" value="否" style="edgeStyle=orthogonalEdgeStyle;rounded=0;orthogonalLoop=1;jettySize=auto;html=1;entryX=0;entryY=0.5;entryDx=0;entryDy=0;" edge="1" parent="1" source="MOwNMbAIh5BBS8uGqdnz-2" target="-Oa4V9TWspahq8izikd7-12">
          <mxGeometry relative="1" as="geometry"/>
        </mxCell>
        <mxCell id="MOwNMbAIh5BBS8uGqdnz-2" value="是否是全量下发所有设备？" style="rhombus;whiteSpace=wrap;html=1;fillColor=#d5e8d4;strokeColor=#82b366;" parent="1" vertex="1">
          <mxGeometry x="57.5" y="280" width="205" height="80" as="geometry"/>
        </mxCell>
        <mxCell id="MOwNMbAIh5BBS8uGqdnz-15" style="edgeStyle=orthogonalEdgeStyle;rounded=0;orthogonalLoop=1;jettySize=auto;html=1;entryX=0.5;entryY=0;entryDx=0;entryDy=0;" parent="1" source="MOwNMbAIh5BBS8uGqdnz-4" target="MOwNMbAIh5BBS8uGqdnz-14" edge="1">
          <mxGeometry relative="1" as="geometry"/>
        </mxCell>
        <mxCell id="-Oa4V9TWspahq8izikd7-4" style="edgeStyle=orthogonalEdgeStyle;rounded=0;orthogonalLoop=1;jettySize=auto;html=1;entryX=0;entryY=0.5;entryDx=0;entryDy=0;" edge="1" parent="1" source="MOwNMbAIh5BBS8uGqdnz-4" target="-Oa4V9TWspahq8izikd7-3">
          <mxGeometry relative="1" as="geometry"/>
        </mxCell>
        <mxCell id="MOwNMbAIh5BBS8uGqdnz-4" value="清空位置快照表，&lt;br&gt;初始化所有位置权限信息" style="rounded=0;whiteSpace=wrap;html=1;" parent="1" vertex="1">
          <mxGeometry x="80" y="420" width="160" height="60" as="geometry"/>
        </mxCell>
        <mxCell id="MOwNMbAIh5BBS8uGqdnz-11" style="edgeStyle=orthogonalEdgeStyle;rounded=0;orthogonalLoop=1;jettySize=auto;html=1;entryX=0.5;entryY=0;entryDx=0;entryDy=0;" parent="1" source="MOwNMbAIh5BBS8uGqdnz-10" target="MOwNMbAIh5BBS8uGqdnz-2" edge="1">
          <mxGeometry relative="1" as="geometry"/>
        </mxCell>
        <mxCell id="MOwNMbAIh5BBS8uGqdnz-12" value="否" style="text;html=1;align=center;verticalAlign=middle;resizable=0;points=[];labelBackgroundColor=#ffffff;" parent="MOwNMbAIh5BBS8uGqdnz-11" vertex="1" connectable="0">
          <mxGeometry x="0.225" y="-2" relative="1" as="geometry">
            <mxPoint x="2" y="-19" as="offset"/>
          </mxGeometry>
        </mxCell>
        <mxCell id="-Oa4V9TWspahq8izikd7-10" value="是" style="edgeStyle=orthogonalEdgeStyle;rounded=0;orthogonalLoop=1;jettySize=auto;html=1;entryX=0;entryY=0.5;entryDx=0;entryDy=0;fillColor=#ffe6cc;strokeColor=#d79b00;" edge="1" parent="1" source="MOwNMbAIh5BBS8uGqdnz-10" target="-Oa4V9TWspahq8izikd7-9">
          <mxGeometry relative="1" as="geometry"/>
        </mxCell>
        <mxCell id="MOwNMbAIh5BBS8uGqdnz-10" value="是否是增量下发？" style="rhombus;whiteSpace=wrap;html=1;" parent="1" vertex="1">
          <mxGeometry x="80" y="130" width="160" height="80" as="geometry"/>
        </mxCell>
        <mxCell id="MOwNMbAIh5BBS8uGqdnz-18" value="获取在线设备&lt;br&gt;生成下发任务" style="edgeStyle=orthogonalEdgeStyle;rounded=0;orthogonalLoop=1;jettySize=auto;html=1;entryX=0.5;entryY=0;entryDx=0;entryDy=0;" parent="1" source="MOwNMbAIh5BBS8uGqdnz-14" target="MOwNMbAIh5BBS8uGqdnz-17" edge="1">
          <mxGeometry relative="1" as="geometry"/>
        </mxCell>
        <mxCell id="-Oa4V9TWspahq8izikd7-5" style="edgeStyle=orthogonalEdgeStyle;rounded=0;orthogonalLoop=1;jettySize=auto;html=1;entryX=0;entryY=0.5;entryDx=0;entryDy=0;" edge="1" parent="1" source="MOwNMbAIh5BBS8uGqdnz-14" target="-Oa4V9TWspahq8izikd7-2">
          <mxGeometry relative="1" as="geometry"/>
        </mxCell>
        <mxCell id="MOwNMbAIh5BBS8uGqdnz-14" value="清空相关设备快照数据，&lt;br&gt;生成相关设备与卡号的快照表" style="rounded=0;whiteSpace=wrap;html=1;fillColor=#f8cecc;strokeColor=#b85450;" parent="1" vertex="1">
          <mxGeometry x="80" y="530" width="160" height="70" as="geometry"/>
        </mxCell>
        <mxCell id="MOwNMbAIh5BBS8uGqdnz-22" value="下发执行任务" style="edgeStyle=orthogonalEdgeStyle;rounded=0;orthogonalLoop=1;jettySize=auto;html=1;" parent="1" source="MOwNMbAIh5BBS8uGqdnz-17" target="MOwNMbAIh5BBS8uGqdnz-19" edge="1">
          <mxGeometry relative="1" as="geometry"/>
        </mxCell>
        <mxCell id="-Oa4V9TWspahq8izikd7-6" style="edgeStyle=orthogonalEdgeStyle;rounded=0;orthogonalLoop=1;jettySize=auto;html=1;" edge="1" parent="1" source="MOwNMbAIh5BBS8uGqdnz-17" target="-Oa4V9TWspahq8izikd7-1">
          <mxGeometry relative="1" as="geometry"/>
        </mxCell>
        <mxCell id="MOwNMbAIh5BBS8uGqdnz-17" value="生成设备&lt;br&gt;及子设备所有需要执行的数据" style="rounded=0;whiteSpace=wrap;html=1;fillColor=#60a917;strokeColor=#2D7600;fontColor=#ffffff;" parent="1" vertex="1">
          <mxGeometry x="80" y="660" width="160" height="60" as="geometry"/>
        </mxCell>
        <mxCell id="MOwNMbAIh5BBS8uGqdnz-24" style="edgeStyle=orthogonalEdgeStyle;rounded=0;orthogonalLoop=1;jettySize=auto;html=1;" parent="1" source="MOwNMbAIh5BBS8uGqdnz-19" target="MOwNMbAIh5BBS8uGqdnz-23" edge="1">
          <mxGeometry relative="1" as="geometry"/>
        </mxCell>
        <mxCell id="MOwNMbAIh5BBS8uGqdnz-19" value="网关回调" style="rounded=0;whiteSpace=wrap;html=1;" parent="1" vertex="1">
          <mxGeometry x="90" y="790" width="140" height="60" as="geometry"/>
        </mxCell>
        <mxCell id="-Oa4V9TWspahq8izikd7-7" style="edgeStyle=orthogonalEdgeStyle;rounded=0;orthogonalLoop=1;jettySize=auto;html=1;entryX=0.5;entryY=1;entryDx=0;entryDy=0;" edge="1" parent="1" source="MOwNMbAIh5BBS8uGqdnz-23" target="-Oa4V9TWspahq8izikd7-1">
          <mxGeometry relative="1" as="geometry"/>
        </mxCell>
        <mxCell id="-Oa4V9TWspahq8izikd7-8" style="edgeStyle=orthogonalEdgeStyle;rounded=0;orthogonalLoop=1;jettySize=auto;html=1;entryX=1;entryY=0.5;entryDx=0;entryDy=0;" edge="1" parent="1" source="MOwNMbAIh5BBS8uGqdnz-23" target="-Oa4V9TWspahq8izikd7-2">
          <mxGeometry relative="1" as="geometry"/>
        </mxCell>
        <mxCell id="MOwNMbAIh5BBS8uGqdnz-23" value="更新设备位置快照&lt;br&gt;及任务" style="rounded=0;whiteSpace=wrap;html=1;fillColor=#f8cecc;strokeColor=#b85450;" parent="1" vertex="1">
          <mxGeometry x="90" y="910" width="140" height="60" as="geometry"/>
        </mxCell>
        <mxCell id="-Oa4V9TWspahq8izikd7-1" value="设备任务表" style="shape=cylinder;whiteSpace=wrap;html=1;boundedLbl=1;backgroundOutline=1;" vertex="1" parent="1">
          <mxGeometry x="305" y="650" width="90" height="80" as="geometry"/>
        </mxCell>
        <mxCell id="-Oa4V9TWspahq8izikd7-2" value="用户设备快照" style="shape=cylinder;whiteSpace=wrap;html=1;boundedLbl=1;backgroundOutline=1;" vertex="1" parent="1">
          <mxGeometry x="300" y="525" width="90" height="80" as="geometry"/>
        </mxCell>
        <mxCell id="-Oa4V9TWspahq8izikd7-3" value="用户位置快照" style="shape=cylinder;whiteSpace=wrap;html=1;boundedLbl=1;backgroundOutline=1;" vertex="1" parent="1">
          <mxGeometry x="300" y="410" width="90" height="80" as="geometry"/>
        </mxCell>
        <mxCell id="-Oa4V9TWspahq8izikd7-17" style="edgeStyle=orthogonalEdgeStyle;rounded=0;orthogonalLoop=1;jettySize=auto;html=1;fillColor=#ffe6cc;strokeColor=#d79b00;" edge="1" parent="1" source="-Oa4V9TWspahq8izikd7-9" target="-Oa4V9TWspahq8izikd7-14">
          <mxGeometry relative="1" as="geometry"/>
        </mxCell>
        <mxCell id="-Oa4V9TWspahq8izikd7-9" value="检查用户位置变更" style="rounded=0;whiteSpace=wrap;html=1;" vertex="1" parent="1">
          <mxGeometry x="520" y="140" width="120" height="60" as="geometry"/>
        </mxCell>
        <mxCell id="-Oa4V9TWspahq8izikd7-20" style="edgeStyle=orthogonalEdgeStyle;rounded=0;orthogonalLoop=1;jettySize=auto;html=1;entryX=0.75;entryY=0;entryDx=0;entryDy=0;" edge="1" parent="1" source="-Oa4V9TWspahq8izikd7-12" target="MOwNMbAIh5BBS8uGqdnz-4">
          <mxGeometry relative="1" as="geometry">
            <Array as="points">
              <mxPoint x="380" y="380"/>
              <mxPoint x="200" y="380"/>
            </Array>
          </mxGeometry>
        </mxCell>
        <mxCell id="-Oa4V9TWspahq8izikd7-12" value="清空指定设备信息？？" style="rounded=0;whiteSpace=wrap;html=1;" vertex="1" parent="1">
          <mxGeometry x="320" y="290" width="160" height="60" as="geometry"/>
        </mxCell>
        <mxCell id="-Oa4V9TWspahq8izikd7-18" style="edgeStyle=orthogonalEdgeStyle;rounded=0;orthogonalLoop=1;jettySize=auto;html=1;entryX=0.75;entryY=0;entryDx=0;entryDy=0;fillColor=#ffe6cc;strokeColor=#d79b00;" edge="1" parent="1" source="-Oa4V9TWspahq8izikd7-14" target="MOwNMbAIh5BBS8uGqdnz-17">
          <mxGeometry relative="1" as="geometry">
            <Array as="points">
              <mxPoint x="580" y="630"/>
              <mxPoint x="200" y="630"/>
            </Array>
          </mxGeometry>
        </mxCell>
        <mxCell id="-Oa4V9TWspahq8izikd7-19" style="edgeStyle=orthogonalEdgeStyle;rounded=0;orthogonalLoop=1;jettySize=auto;html=1;fillColor=#ffe6cc;strokeColor=#d79b00;" edge="1" parent="1" source="-Oa4V9TWspahq8izikd7-14" target="-Oa4V9TWspahq8izikd7-2">
          <mxGeometry relative="1" as="geometry">
            <Array as="points">
              <mxPoint x="470" y="550"/>
              <mxPoint x="470" y="550"/>
            </Array>
          </mxGeometry>
        </mxCell>
        <mxCell id="-Oa4V9TWspahq8izikd7-14" value="检查用户设备变更&lt;br&gt;（根据设备位置前后变化清空对比）" style="rounded=0;whiteSpace=wrap;html=1;" vertex="1" parent="1">
          <mxGeometry x="505" y="535" width="195" height="45" as="geometry"/>
        </mxCell>
        <mxCell id="-Oa4V9TWspahq8izikd7-22" value="包括在线设备&lt;br&gt;离线设备的所有数据" style="text;html=1;strokeColor=none;fillColor=none;align=center;verticalAlign=middle;whiteSpace=wrap;rounded=0;" vertex="1" parent="1">
          <mxGeometry x="395" y="430" width="160" height="40" as="geometry"/>
        </mxCell>
      </root>
    </mxGraphModel>
  </diagram>
</mxfile>
